<mxfile host="app.diagrams.net" agent="Mozilla/5.0 (Windows NT 10.0; Win64; x64; rv:131.0) Gecko/20100101 Firefox/131.0" version="24.7.17" pages="8">
  <diagram name="Page-1" id="VoJw-NflkOjj5ZJhAXec">
    <mxGraphModel dx="880" dy="422" grid="1" gridSize="10" guides="1" tooltips="1" connect="1" arrows="1" fold="1" page="1" pageScale="1" pageWidth="850" pageHeight="1100" math="0" shadow="0">
      <root>
        <mxCell id="0" />
        <mxCell id="1" parent="0" />
        <mxCell id="fIKoYiJk8OIai4AO7cgT-3" value="" style="edgeStyle=orthogonalEdgeStyle;rounded=0;orthogonalLoop=1;jettySize=auto;html=1;" edge="1" parent="1" source="fIKoYiJk8OIai4AO7cgT-1" target="fIKoYiJk8OIai4AO7cgT-2">
          <mxGeometry relative="1" as="geometry" />
        </mxCell>
        <mxCell id="fIKoYiJk8OIai4AO7cgT-1" value="START" style="rounded=1;whiteSpace=wrap;html=1;" vertex="1" parent="1">
          <mxGeometry x="390" y="170" width="120" height="60" as="geometry" />
        </mxCell>
        <mxCell id="fIKoYiJk8OIai4AO7cgT-5" value="" style="edgeStyle=orthogonalEdgeStyle;rounded=0;orthogonalLoop=1;jettySize=auto;html=1;" edge="1" parent="1" source="fIKoYiJk8OIai4AO7cgT-2" target="fIKoYiJk8OIai4AO7cgT-4">
          <mxGeometry relative="1" as="geometry" />
        </mxCell>
        <mxCell id="fIKoYiJk8OIai4AO7cgT-2" value="nilai awal pada seven segment diatur menjadi 0" style="shape=parallelogram;perimeter=parallelogramPerimeter;whiteSpace=wrap;html=1;fixedSize=1;rounded=1;" vertex="1" parent="1">
          <mxGeometry x="390" y="310" width="120" height="60" as="geometry" />
        </mxCell>
        <mxCell id="fIKoYiJk8OIai4AO7cgT-7" value="" style="edgeStyle=orthogonalEdgeStyle;rounded=0;orthogonalLoop=1;jettySize=auto;html=1;" edge="1" parent="1" source="fIKoYiJk8OIai4AO7cgT-4" target="fIKoYiJk8OIai4AO7cgT-6">
          <mxGeometry relative="1" as="geometry" />
        </mxCell>
        <mxCell id="fIKoYiJk8OIai4AO7cgT-4" value="angka pada seven segment ditampilkan sesuai dengan nilai yang ada." style="shape=display;whiteSpace=wrap;html=1;" vertex="1" parent="1">
          <mxGeometry x="382.5" y="420" width="135" height="80" as="geometry" />
        </mxCell>
        <mxCell id="fIKoYiJk8OIai4AO7cgT-9" value="" style="edgeStyle=orthogonalEdgeStyle;rounded=0;orthogonalLoop=1;jettySize=auto;html=1;" edge="1" parent="1" source="fIKoYiJk8OIai4AO7cgT-6" target="fIKoYiJk8OIai4AO7cgT-8">
          <mxGeometry relative="1" as="geometry" />
        </mxCell>
        <mxCell id="fIKoYiJk8OIai4AO7cgT-6" value="nilai seven segment ditambah 1" style="whiteSpace=wrap;html=1;" vertex="1" parent="1">
          <mxGeometry x="390" y="590" width="120" height="60" as="geometry" />
        </mxCell>
        <mxCell id="fIKoYiJk8OIai4AO7cgT-11" value="" style="edgeStyle=orthogonalEdgeStyle;rounded=0;orthogonalLoop=1;jettySize=auto;html=1;" edge="1" parent="1" source="fIKoYiJk8OIai4AO7cgT-8" target="fIKoYiJk8OIai4AO7cgT-10">
          <mxGeometry relative="1" as="geometry" />
        </mxCell>
        <mxCell id="fIKoYiJk8OIai4AO7cgT-8" value="apakah nilai &amp;gt; 9" style="rhombus;whiteSpace=wrap;html=1;" vertex="1" parent="1">
          <mxGeometry x="400" y="720" width="100" height="90" as="geometry" />
        </mxCell>
        <mxCell id="fIKoYiJk8OIai4AO7cgT-10" value="END" style="rounded=1;whiteSpace=wrap;html=1;" vertex="1" parent="1">
          <mxGeometry x="390" y="905" width="120" height="60" as="geometry" />
        </mxCell>
      </root>
    </mxGraphModel>
  </diagram>
  <diagram id="eG1ZTqDy2E6IIxppEJPe" name="Page-2">
    <mxGraphModel dx="880" dy="422" grid="1" gridSize="10" guides="1" tooltips="1" connect="1" arrows="1" fold="1" page="1" pageScale="1" pageWidth="850" pageHeight="1100" math="0" shadow="0">
      <root>
        <mxCell id="0" />
        <mxCell id="1" parent="0" />
        <mxCell id="dvwCaunr6A2sc1vKdRJg-5" value="" style="edgeStyle=orthogonalEdgeStyle;rounded=0;orthogonalLoop=1;jettySize=auto;html=1;" edge="1" parent="1" source="dvwCaunr6A2sc1vKdRJg-1" target="dvwCaunr6A2sc1vKdRJg-4">
          <mxGeometry relative="1" as="geometry" />
        </mxCell>
        <mxCell id="dvwCaunr6A2sc1vKdRJg-1" value="START" style="rounded=1;whiteSpace=wrap;html=1;" vertex="1" parent="1">
          <mxGeometry x="360" y="190" width="120" height="60" as="geometry" />
        </mxCell>
        <mxCell id="k4ADxQlh0pAvILffFITT-2" value="" style="edgeStyle=orthogonalEdgeStyle;rounded=0;orthogonalLoop=1;jettySize=auto;html=1;" edge="1" parent="1" source="dvwCaunr6A2sc1vKdRJg-4" target="k4ADxQlh0pAvILffFITT-1">
          <mxGeometry relative="1" as="geometry" />
        </mxCell>
        <mxCell id="dvwCaunr6A2sc1vKdRJg-4" value="nilai pada seven segment diatur menjadi 20 " style="shape=parallelogram;perimeter=parallelogramPerimeter;whiteSpace=wrap;html=1;fixedSize=1;rounded=1;" vertex="1" parent="1">
          <mxGeometry x="360" y="330" width="120" height="60" as="geometry" />
        </mxCell>
        <mxCell id="k4ADxQlh0pAvILffFITT-4" value="" style="edgeStyle=orthogonalEdgeStyle;rounded=0;orthogonalLoop=1;jettySize=auto;html=1;" edge="1" parent="1" source="k4ADxQlh0pAvILffFITT-1" target="k4ADxQlh0pAvILffFITT-3">
          <mxGeometry relative="1" as="geometry" />
        </mxCell>
        <mxCell id="k4ADxQlh0pAvILffFITT-1" value="angka pada seven segment ditampilkan sesuai dengan nilai yang ada " style="shape=display;whiteSpace=wrap;html=1;" vertex="1" parent="1">
          <mxGeometry x="345" y="430" width="150" height="90" as="geometry" />
        </mxCell>
        <mxCell id="k4ADxQlh0pAvILffFITT-6" value="" style="edgeStyle=orthogonalEdgeStyle;rounded=0;orthogonalLoop=1;jettySize=auto;html=1;" edge="1" parent="1" source="k4ADxQlh0pAvILffFITT-3" target="k4ADxQlh0pAvILffFITT-5">
          <mxGeometry relative="1" as="geometry" />
        </mxCell>
        <mxCell id="k4ADxQlh0pAvILffFITT-3" value="nilai pada seven segment dikurang 1" style="whiteSpace=wrap;html=1;" vertex="1" parent="1">
          <mxGeometry x="360" y="615" width="120" height="60" as="geometry" />
        </mxCell>
        <mxCell id="k4ADxQlh0pAvILffFITT-10" value="" style="edgeStyle=orthogonalEdgeStyle;rounded=0;orthogonalLoop=1;jettySize=auto;html=1;" edge="1" parent="1" source="k4ADxQlh0pAvILffFITT-5" target="k4ADxQlh0pAvILffFITT-9">
          <mxGeometry relative="1" as="geometry" />
        </mxCell>
        <mxCell id="k4ADxQlh0pAvILffFITT-5" value="apakah nilai &amp;gt; 0?" style="rhombus;whiteSpace=wrap;html=1;" vertex="1" parent="1">
          <mxGeometry x="370" y="745" width="100" height="95" as="geometry" />
        </mxCell>
        <mxCell id="k4ADxQlh0pAvILffFITT-9" value="END" style="rounded=1;whiteSpace=wrap;html=1;" vertex="1" parent="1">
          <mxGeometry x="360" y="937.5" width="120" height="60" as="geometry" />
        </mxCell>
      </root>
    </mxGraphModel>
  </diagram>
  <diagram id="HTyrPi-Whjk_YCgT4G5M" name="Page-3">
    <mxGraphModel dx="880" dy="422" grid="1" gridSize="10" guides="1" tooltips="1" connect="1" arrows="1" fold="1" page="1" pageScale="1" pageWidth="850" pageHeight="1100" math="0" shadow="0">
      <root>
        <mxCell id="0" />
        <mxCell id="1" parent="0" />
        <mxCell id="PZZ8oByq3PF3k6W48uKL-2" value="" style="edgeStyle=orthogonalEdgeStyle;rounded=0;orthogonalLoop=1;jettySize=auto;html=1;" edge="1" parent="1" source="95gcDYUKjAawWrb2zK56-1" target="PZZ8oByq3PF3k6W48uKL-1">
          <mxGeometry relative="1" as="geometry" />
        </mxCell>
        <mxCell id="95gcDYUKjAawWrb2zK56-1" value="START" style="rounded=1;whiteSpace=wrap;html=1;" vertex="1" parent="1">
          <mxGeometry x="360" y="190" width="120" height="60" as="geometry" />
        </mxCell>
        <mxCell id="PZZ8oByq3PF3k6W48uKL-8" value="" style="edgeStyle=orthogonalEdgeStyle;rounded=0;orthogonalLoop=1;jettySize=auto;html=1;" edge="1" parent="1" source="PZZ8oByq3PF3k6W48uKL-1" target="PZZ8oByq3PF3k6W48uKL-7">
          <mxGeometry relative="1" as="geometry" />
        </mxCell>
        <mxCell id="PZZ8oByq3PF3k6W48uKL-1" value="nilai awal pada seven segment diatur menjadi 0" style="shape=parallelogram;perimeter=parallelogramPerimeter;whiteSpace=wrap;html=1;fixedSize=1;rounded=1;" vertex="1" parent="1">
          <mxGeometry x="360" y="330" width="120" height="60" as="geometry" />
        </mxCell>
        <mxCell id="PZZ8oByq3PF3k6W48uKL-12" value="" style="edgeStyle=orthogonalEdgeStyle;rounded=0;orthogonalLoop=1;jettySize=auto;html=1;" edge="1" parent="1" source="PZZ8oByq3PF3k6W48uKL-7" target="PZZ8oByq3PF3k6W48uKL-11">
          <mxGeometry relative="1" as="geometry" />
        </mxCell>
        <mxCell id="PZZ8oByq3PF3k6W48uKL-7" value="menekan button" style="ellipse;whiteSpace=wrap;html=1;rounded=1;" vertex="1" parent="1">
          <mxGeometry x="380" y="460" width="80" height="80" as="geometry" />
        </mxCell>
        <mxCell id="PZZ8oByq3PF3k6W48uKL-14" value="" style="edgeStyle=orthogonalEdgeStyle;rounded=0;orthogonalLoop=1;jettySize=auto;html=1;" edge="1" parent="1" source="PZZ8oByq3PF3k6W48uKL-11" target="PZZ8oByq3PF3k6W48uKL-13">
          <mxGeometry relative="1" as="geometry" />
        </mxCell>
        <mxCell id="PZZ8oByq3PF3k6W48uKL-11" value="angka pada seven segment ditampilkan sesuai dengan nilai yang ada" style="shape=display;whiteSpace=wrap;html=1;" vertex="1" parent="1">
          <mxGeometry x="355" y="630" width="130" height="80" as="geometry" />
        </mxCell>
        <mxCell id="PZZ8oByq3PF3k6W48uKL-16" value="" style="edgeStyle=orthogonalEdgeStyle;rounded=0;orthogonalLoop=1;jettySize=auto;html=1;" edge="1" parent="1" source="PZZ8oByq3PF3k6W48uKL-13" target="PZZ8oByq3PF3k6W48uKL-15">
          <mxGeometry relative="1" as="geometry" />
        </mxCell>
        <mxCell id="PZZ8oByq3PF3k6W48uKL-13" value="nilai pada seven segment dikurang 1" style="whiteSpace=wrap;html=1;" vertex="1" parent="1">
          <mxGeometry x="360" y="800" width="120" height="60" as="geometry" />
        </mxCell>
        <mxCell id="PZZ8oByq3PF3k6W48uKL-18" value="" style="edgeStyle=orthogonalEdgeStyle;rounded=0;orthogonalLoop=1;jettySize=auto;html=1;" edge="1" parent="1" source="PZZ8oByq3PF3k6W48uKL-15" target="PZZ8oByq3PF3k6W48uKL-17">
          <mxGeometry relative="1" as="geometry" />
        </mxCell>
        <mxCell id="PZZ8oByq3PF3k6W48uKL-15" value="apakah nilai &amp;gt;0?" style="rhombus;whiteSpace=wrap;html=1;" vertex="1" parent="1">
          <mxGeometry x="365" y="930" width="110" height="90" as="geometry" />
        </mxCell>
        <mxCell id="PZZ8oByq3PF3k6W48uKL-20" value="" style="edgeStyle=orthogonalEdgeStyle;rounded=0;orthogonalLoop=1;jettySize=auto;html=1;" edge="1" parent="1" source="PZZ8oByq3PF3k6W48uKL-17" target="PZZ8oByq3PF3k6W48uKL-19">
          <mxGeometry relative="1" as="geometry" />
        </mxCell>
        <mxCell id="PZZ8oByq3PF3k6W48uKL-17" value="menekan tombol" style="ellipse;whiteSpace=wrap;html=1;" vertex="1" parent="1">
          <mxGeometry x="380" y="1105" width="80" height="80" as="geometry" />
        </mxCell>
        <mxCell id="PZZ8oByq3PF3k6W48uKL-19" value="END" style="rounded=1;whiteSpace=wrap;html=1;" vertex="1" parent="1">
          <mxGeometry x="360" y="1275" width="120" height="60" as="geometry" />
        </mxCell>
      </root>
    </mxGraphModel>
  </diagram>
  <diagram id="qZvNkt20DozGk1xwk5nz" name="Page-4">
    <mxGraphModel dx="880" dy="422" grid="1" gridSize="10" guides="1" tooltips="1" connect="1" arrows="1" fold="1" page="1" pageScale="1" pageWidth="850" pageHeight="1100" math="0" shadow="0">
      <root>
        <mxCell id="0" />
        <mxCell id="1" parent="0" />
        <mxCell id="YL9h1uyqCisInr6YeoXm-7" value="" style="edgeStyle=orthogonalEdgeStyle;rounded=0;orthogonalLoop=1;jettySize=auto;html=1;" edge="1" parent="1" source="YL9h1uyqCisInr6YeoXm-1" target="YL9h1uyqCisInr6YeoXm-6">
          <mxGeometry relative="1" as="geometry" />
        </mxCell>
        <mxCell id="YL9h1uyqCisInr6YeoXm-1" value="START" style="rounded=1;whiteSpace=wrap;html=1;" vertex="1" parent="1">
          <mxGeometry x="360" y="70" width="120" height="60" as="geometry" />
        </mxCell>
        <mxCell id="YL9h1uyqCisInr6YeoXm-9" value="" style="edgeStyle=orthogonalEdgeStyle;rounded=0;orthogonalLoop=1;jettySize=auto;html=1;" edge="1" parent="1" source="YL9h1uyqCisInr6YeoXm-6" target="YL9h1uyqCisInr6YeoXm-8">
          <mxGeometry relative="1" as="geometry" />
        </mxCell>
        <mxCell id="YL9h1uyqCisInr6YeoXm-6" value="cetak tombol ya/tidak" style="rhombus;whiteSpace=wrap;html=1;" vertex="1" parent="1">
          <mxGeometry x="360" y="180" width="120" height="120" as="geometry" />
        </mxCell>
        <mxCell id="YL9h1uyqCisInr6YeoXm-11" value="" style="edgeStyle=orthogonalEdgeStyle;rounded=0;orthogonalLoop=1;jettySize=auto;html=1;" edge="1" parent="1" source="YL9h1uyqCisInr6YeoXm-8" target="YL9h1uyqCisInr6YeoXm-10">
          <mxGeometry relative="1" as="geometry" />
        </mxCell>
        <mxCell id="YL9h1uyqCisInr6YeoXm-8" value="set status mejadi sedang melalukan counter down" style="shape=parallelogram;perimeter=parallelogramPerimeter;whiteSpace=wrap;html=1;fixedSize=1;" vertex="1" parent="1">
          <mxGeometry x="350" y="360" width="140" height="70" as="geometry" />
        </mxCell>
        <mxCell id="YL9h1uyqCisInr6YeoXm-13" value="" style="edgeStyle=orthogonalEdgeStyle;rounded=0;orthogonalLoop=1;jettySize=auto;html=1;" edge="1" parent="1" source="YL9h1uyqCisInr6YeoXm-10" target="YL9h1uyqCisInr6YeoXm-12">
          <mxGeometry relative="1" as="geometry" />
        </mxCell>
        <mxCell id="YL9h1uyqCisInr6YeoXm-10" value="angka pada seven segment ditampilkan sesuai dengan nilai yang ada" style="shape=display;whiteSpace=wrap;html=1;" vertex="1" parent="1">
          <mxGeometry x="330" y="500" width="180" height="110" as="geometry" />
        </mxCell>
        <mxCell id="YL9h1uyqCisInr6YeoXm-15" value="" style="edgeStyle=orthogonalEdgeStyle;rounded=0;orthogonalLoop=1;jettySize=auto;html=1;" edge="1" parent="1" source="YL9h1uyqCisInr6YeoXm-12" target="YL9h1uyqCisInr6YeoXm-14">
          <mxGeometry relative="1" as="geometry" />
        </mxCell>
        <mxCell id="YL9h1uyqCisInr6YeoXm-12" value="nilai pada seven segment dikurangi 1" style="whiteSpace=wrap;html=1;" vertex="1" parent="1">
          <mxGeometry x="355" y="670" width="130" height="70" as="geometry" />
        </mxCell>
        <mxCell id="YL9h1uyqCisInr6YeoXm-17" value="" style="edgeStyle=orthogonalEdgeStyle;rounded=0;orthogonalLoop=1;jettySize=auto;html=1;" edge="1" parent="1" source="YL9h1uyqCisInr6YeoXm-14" target="YL9h1uyqCisInr6YeoXm-16">
          <mxGeometry relative="1" as="geometry" />
        </mxCell>
        <mxCell id="YL9h1uyqCisInr6YeoXm-14" value="apakah nilai &amp;lt;= 0" style="rhombus;whiteSpace=wrap;html=1;" vertex="1" parent="1">
          <mxGeometry x="365" y="800" width="110" height="105" as="geometry" />
        </mxCell>
        <mxCell id="YL9h1uyqCisInr6YeoXm-21" value="" style="edgeStyle=orthogonalEdgeStyle;rounded=0;orthogonalLoop=1;jettySize=auto;html=1;" edge="1" parent="1" source="YL9h1uyqCisInr6YeoXm-16" target="YL9h1uyqCisInr6YeoXm-20">
          <mxGeometry relative="1" as="geometry" />
        </mxCell>
        <mxCell id="YL9h1uyqCisInr6YeoXm-16" value="Turn off the light" style="shape=parallelogram;perimeter=parallelogramPerimeter;whiteSpace=wrap;html=1;fixedSize=1;" vertex="1" parent="1">
          <mxGeometry x="360" y="960" width="120" height="60" as="geometry" />
        </mxCell>
        <mxCell id="YL9h1uyqCisInr6YeoXm-20" value="END" style="rounded=1;whiteSpace=wrap;html=1;" vertex="1" parent="1">
          <mxGeometry x="360" y="1070" width="120" height="60" as="geometry" />
        </mxCell>
      </root>
    </mxGraphModel>
  </diagram>
  <diagram id="1f1If6hx-uNhooot16YX" name="Page-5">
    <mxGraphModel dx="880" dy="422" grid="1" gridSize="10" guides="1" tooltips="1" connect="1" arrows="1" fold="1" page="1" pageScale="1" pageWidth="850" pageHeight="1100" math="0" shadow="0">
      <root>
        <mxCell id="0" />
        <mxCell id="1" parent="0" />
        <mxCell id="63dpQE8tEoEok_zsQKNu-5" value="" style="edgeStyle=orthogonalEdgeStyle;rounded=0;orthogonalLoop=1;jettySize=auto;html=1;" edge="1" parent="1" source="63dpQE8tEoEok_zsQKNu-1" target="63dpQE8tEoEok_zsQKNu-3">
          <mxGeometry relative="1" as="geometry" />
        </mxCell>
        <mxCell id="63dpQE8tEoEok_zsQKNu-1" value="START" style="ellipse;whiteSpace=wrap;html=1;" vertex="1" parent="1">
          <mxGeometry x="360" y="180" width="120" height="80" as="geometry" />
        </mxCell>
        <mxCell id="63dpQE8tEoEok_zsQKNu-3" value="Pilih nilai analog terhadap potensio" style="shape=parallelogram;perimeter=parallelogramPerimeter;whiteSpace=wrap;html=1;fixedSize=1;" vertex="1" parent="1">
          <mxGeometry x="335" y="340" width="170" height="80" as="geometry" />
        </mxCell>
        <mxCell id="63dpQE8tEoEok_zsQKNu-6" value="Menampilkan nilai analog potensio" style="shape=parallelogram;perimeter=parallelogramPerimeter;whiteSpace=wrap;html=1;fixedSize=1;" vertex="1" parent="1">
          <mxGeometry x="335" y="490" width="170" height="70" as="geometry" />
        </mxCell>
        <mxCell id="63dpQE8tEoEok_zsQKNu-11" value="" style="endArrow=classic;startArrow=classic;html=1;rounded=0;entryX=0.459;entryY=0.95;entryDx=0;entryDy=0;entryPerimeter=0;exitX=0.465;exitY=0.014;exitDx=0;exitDy=0;exitPerimeter=0;" edge="1" parent="1" source="63dpQE8tEoEok_zsQKNu-6" target="63dpQE8tEoEok_zsQKNu-3">
          <mxGeometry width="50" height="50" relative="1" as="geometry">
            <mxPoint x="400" y="550" as="sourcePoint" />
            <mxPoint x="450" y="500" as="targetPoint" />
          </mxGeometry>
        </mxCell>
      </root>
    </mxGraphModel>
  </diagram>
  <diagram id="c8xn4HyhLr1zHFq-VPFH" name="Page-6">
    <mxGraphModel dx="880" dy="422" grid="1" gridSize="10" guides="1" tooltips="1" connect="1" arrows="1" fold="1" page="1" pageScale="1" pageWidth="850" pageHeight="1100" math="0" shadow="0">
      <root>
        <mxCell id="0" />
        <mxCell id="1" parent="0" />
        <mxCell id="CsEEb0gc6UW1WlCVTfTW-1" value="" style="edgeStyle=orthogonalEdgeStyle;rounded=0;orthogonalLoop=1;jettySize=auto;html=1;" edge="1" parent="1" source="CsEEb0gc6UW1WlCVTfTW-2" target="CsEEb0gc6UW1WlCVTfTW-3">
          <mxGeometry relative="1" as="geometry" />
        </mxCell>
        <mxCell id="CsEEb0gc6UW1WlCVTfTW-2" value="START" style="ellipse;whiteSpace=wrap;html=1;" vertex="1" parent="1">
          <mxGeometry x="360" y="180" width="120" height="80" as="geometry" />
        </mxCell>
        <mxCell id="CsEEb0gc6UW1WlCVTfTW-3" value="Pilih nilai voltage terhadap potensio" style="shape=parallelogram;perimeter=parallelogramPerimeter;whiteSpace=wrap;html=1;fixedSize=1;" vertex="1" parent="1">
          <mxGeometry x="335" y="340" width="170" height="80" as="geometry" />
        </mxCell>
        <mxCell id="CsEEb0gc6UW1WlCVTfTW-4" value="Menampilkan nilai voltage potensio" style="shape=parallelogram;perimeter=parallelogramPerimeter;whiteSpace=wrap;html=1;fixedSize=1;" vertex="1" parent="1">
          <mxGeometry x="335" y="490" width="170" height="70" as="geometry" />
        </mxCell>
        <mxCell id="CsEEb0gc6UW1WlCVTfTW-5" value="" style="endArrow=classic;startArrow=classic;html=1;rounded=0;entryX=0.459;entryY=0.95;entryDx=0;entryDy=0;entryPerimeter=0;exitX=0.465;exitY=0.014;exitDx=0;exitDy=0;exitPerimeter=0;" edge="1" parent="1" source="CsEEb0gc6UW1WlCVTfTW-4" target="CsEEb0gc6UW1WlCVTfTW-3">
          <mxGeometry width="50" height="50" relative="1" as="geometry">
            <mxPoint x="400" y="550" as="sourcePoint" />
            <mxPoint x="450" y="500" as="targetPoint" />
          </mxGeometry>
        </mxCell>
      </root>
    </mxGraphModel>
  </diagram>
  <diagram id="-9gaMFX86hm5H2zVASSh" name="Page-7">
    <mxGraphModel dx="1760" dy="844" grid="1" gridSize="10" guides="1" tooltips="1" connect="1" arrows="1" fold="1" page="1" pageScale="1" pageWidth="850" pageHeight="1100" math="0" shadow="0">
      <root>
        <mxCell id="0" />
        <mxCell id="1" parent="0" />
        <mxCell id="Ot5Qwur2_kI7GHmSesql-4" value="" style="edgeStyle=orthogonalEdgeStyle;rounded=0;orthogonalLoop=1;jettySize=auto;html=1;" edge="1" parent="1" source="Ot5Qwur2_kI7GHmSesql-1" target="Ot5Qwur2_kI7GHmSesql-3">
          <mxGeometry relative="1" as="geometry" />
        </mxCell>
        <mxCell id="Ot5Qwur2_kI7GHmSesql-1" value="START" style="ellipse;whiteSpace=wrap;html=1;" vertex="1" parent="1">
          <mxGeometry x="360" y="120" width="120" height="80" as="geometry" />
        </mxCell>
        <mxCell id="Ot5Qwur2_kI7GHmSesql-6" value="" style="edgeStyle=orthogonalEdgeStyle;rounded=0;orthogonalLoop=1;jettySize=auto;html=1;" edge="1" parent="1" source="Ot5Qwur2_kI7GHmSesql-3" target="Ot5Qwur2_kI7GHmSesql-5">
          <mxGeometry relative="1" as="geometry" />
        </mxCell>
        <mxCell id="Ot5Qwur2_kI7GHmSesql-3" value="Pilih nilai analog terhadap potensio (0-1240)" style="shape=parallelogram;perimeter=parallelogramPerimeter;whiteSpace=wrap;html=1;fixedSize=1;" vertex="1" parent="1">
          <mxGeometry x="330" y="260" width="180" height="70" as="geometry" />
        </mxCell>
        <mxCell id="Ot5Qwur2_kI7GHmSesql-8" value="" style="edgeStyle=orthogonalEdgeStyle;rounded=0;orthogonalLoop=1;jettySize=auto;html=1;" edge="1" parent="1" source="Ot5Qwur2_kI7GHmSesql-5" target="Ot5Qwur2_kI7GHmSesql-7">
          <mxGeometry relative="1" as="geometry" />
        </mxCell>
        <mxCell id="Ot5Qwur2_kI7GHmSesql-5" value="Mengubah nilai analog menjadi nilai PWM (tegangan) (0-255)" style="whiteSpace=wrap;html=1;" vertex="1" parent="1">
          <mxGeometry x="320" y="410" width="200" height="70" as="geometry" />
        </mxCell>
        <mxCell id="Ot5Qwur2_kI7GHmSesql-7" value="&lt;div&gt;Menampilkan nilai voltage potensio&lt;/div&gt;" style="shape=parallelogram;perimeter=parallelogramPerimeter;whiteSpace=wrap;html=1;fixedSize=1;" vertex="1" parent="1">
          <mxGeometry x="300" y="560" width="240" height="90" as="geometry" />
        </mxCell>
        <mxCell id="Ot5Qwur2_kI7GHmSesql-14" value="" style="endArrow=classic;html=1;rounded=0;exitX=1;exitY=0.5;exitDx=0;exitDy=0;entryX=1;entryY=0.5;entryDx=0;entryDy=0;" edge="1" parent="1" source="Ot5Qwur2_kI7GHmSesql-7" target="Ot5Qwur2_kI7GHmSesql-3">
          <mxGeometry width="50" height="50" relative="1" as="geometry">
            <mxPoint x="390" y="790" as="sourcePoint" />
            <mxPoint x="650" y="290" as="targetPoint" />
            <Array as="points">
              <mxPoint x="650" y="605" />
              <mxPoint x="650" y="295" />
            </Array>
          </mxGeometry>
        </mxCell>
      </root>
    </mxGraphModel>
  </diagram>
  <diagram id="uct28qca_1IrubCbbLbC" name="Page-8">
    <mxGraphModel dx="880" dy="422" grid="1" gridSize="10" guides="1" tooltips="1" connect="1" arrows="1" fold="1" page="1" pageScale="1" pageWidth="850" pageHeight="1100" math="0" shadow="0">
      <root>
        <mxCell id="0" />
        <mxCell id="1" parent="0" />
        <mxCell id="Esfg56JCV73nhRUbkAZh-1" value="" style="edgeStyle=orthogonalEdgeStyle;rounded=0;orthogonalLoop=1;jettySize=auto;html=1;" edge="1" parent="1" source="Esfg56JCV73nhRUbkAZh-2" target="Esfg56JCV73nhRUbkAZh-4">
          <mxGeometry relative="1" as="geometry" />
        </mxCell>
        <mxCell id="Esfg56JCV73nhRUbkAZh-2" value="START" style="ellipse;whiteSpace=wrap;html=1;" vertex="1" parent="1">
          <mxGeometry x="360" y="120" width="120" height="80" as="geometry" />
        </mxCell>
        <mxCell id="Esfg56JCV73nhRUbkAZh-3" value="" style="edgeStyle=orthogonalEdgeStyle;rounded=0;orthogonalLoop=1;jettySize=auto;html=1;" edge="1" parent="1" source="Esfg56JCV73nhRUbkAZh-4" target="Esfg56JCV73nhRUbkAZh-6">
          <mxGeometry relative="1" as="geometry" />
        </mxCell>
        <mxCell id="Esfg56JCV73nhRUbkAZh-4" value="Pilih nilai analog terhadap potensio (0-1240)" style="shape=parallelogram;perimeter=parallelogramPerimeter;whiteSpace=wrap;html=1;fixedSize=1;" vertex="1" parent="1">
          <mxGeometry x="330" y="260" width="180" height="70" as="geometry" />
        </mxCell>
        <mxCell id="Esfg56JCV73nhRUbkAZh-5" value="" style="edgeStyle=orthogonalEdgeStyle;rounded=0;orthogonalLoop=1;jettySize=auto;html=1;" edge="1" parent="1" source="Esfg56JCV73nhRUbkAZh-6" target="Esfg56JCV73nhRUbkAZh-7">
          <mxGeometry relative="1" as="geometry" />
        </mxCell>
        <mxCell id="Esfg56JCV73nhRUbkAZh-6" value="Mengubah nilai analog menjadi nilai sudut" style="whiteSpace=wrap;html=1;" vertex="1" parent="1">
          <mxGeometry x="320" y="410" width="200" height="70" as="geometry" />
        </mxCell>
        <mxCell id="Esfg56JCV73nhRUbkAZh-7" value="&lt;div&gt;Menampilkan nilai sudut kepada servo&lt;br&gt;&lt;/div&gt;" style="shape=parallelogram;perimeter=parallelogramPerimeter;whiteSpace=wrap;html=1;fixedSize=1;" vertex="1" parent="1">
          <mxGeometry x="300" y="560" width="240" height="90" as="geometry" />
        </mxCell>
        <mxCell id="Esfg56JCV73nhRUbkAZh-8" value="" style="endArrow=classic;html=1;rounded=0;exitX=1;exitY=0.5;exitDx=0;exitDy=0;entryX=1;entryY=0.5;entryDx=0;entryDy=0;" edge="1" parent="1" source="Esfg56JCV73nhRUbkAZh-7" target="Esfg56JCV73nhRUbkAZh-4">
          <mxGeometry width="50" height="50" relative="1" as="geometry">
            <mxPoint x="390" y="790" as="sourcePoint" />
            <mxPoint x="650" y="290" as="targetPoint" />
            <Array as="points">
              <mxPoint x="650" y="605" />
              <mxPoint x="650" y="295" />
            </Array>
          </mxGeometry>
        </mxCell>
      </root>
    </mxGraphModel>
  </diagram>
</mxfile>
